<svg xmlns="http://www.w3.org/2000/svg" width="60" height="60" fill="none"><rect width="60" height="60" fill="#82B3D3" rx="4"/><path fill="#fff" d="M28.6 34.44c.83 0 1.45-.22 1.88-.66.44-.44.66-.97.66-1.6 0-.76-.23-1.32-.68-1.68-.45-.36-1.17-.54-2.14-.54h-1.44v-1.38l2.42-3.3 1.14-.9-1.58.18H25.5v-2.2h7.64v1.42l-2.82 3.78-.88.54v.1l.84-.12c.47.04.9.15 1.32.32a3.43 3.43 0 0 1 1.86 1.96c.19.48.28 1.04.28 1.66a4.8 4.8 0 0 1-.4 2.04 3.88 3.88 0 0 1-1.08 1.44c-.45.39-.99.68-1.6.86-.61.19-1.27.28-1.98.28-.59 0-1.2-.05-1.82-.16a5.27 5.27 0 0 1-1.52-.46l.7-2.16a5.76 5.76 0 0 0 2.56.58Z"/></svg>