<svg xmlns="http://www.w3.org/2000/svg" width="60" height="60" fill="none"><rect width="60" height="60" fill="#82B3D3" rx="4"/><path fill="#fff" d="M33.28 25.78c0 .68-.13 1.37-.38 2.06-.24.7-.55 1.38-.94 2.04-.37.67-.8 1.32-1.26 1.94-.45.62-.9 1.18-1.34 1.7l-1.06.82v.1l1.44-.28h3.84v2.2h-8.42v-1.34l1.08-1.16a44.73 44.73 0 0 0 2.4-2.98c.39-.53.73-1.06 1.04-1.6.3-.54.55-1.07.72-1.58.19-.5.28-.98.28-1.44 0-.54-.16-.99-.48-1.34-.3-.36-.8-.54-1.48-.54-.43 0-.87.1-1.32.28-.44.18-.81.4-1.12.68l-1.04-1.84a6.4 6.4 0 0 1 4.1-1.42c.57 0 1.1.08 1.58.24a3.2 3.2 0 0 1 2.06 1.86c.2.46.3.99.3 1.6Z"/></svg>